<svg xmlns="http://www.w3.org/2000/svg" width="200" height="200" viewBox="0 0 200 200"><g fill="#ECEDE7"><path d="M68.789 140.664c8.633 6.758 19.531 10.82 31.328 10.82 6.445 0 12.617-1.25 18.32-3.438a202.19 202.19 0 0 0-10.508-38.438c-16.054 4.806-28.984 15.158-39.14 31.056zm35.039-41.016a180.468 180.468 0 0 0-3.438-7.383c-14.336 4.492-31.406 6.758-51.25 6.797-.039.469-.078.898-.078 1.328 0 12.422 4.453 23.789 11.797 32.656 11.211-16.796 25.547-27.968 42.969-33.398zM131.25 60c-8.633-6.641-19.414-10.664-31.133-10.664-4.336 0-8.516.586-12.539 1.602a237.463 237.463 0 0 1 17.969 28.008c10.937-4.61 19.492-10.938 25.703-18.946zm-54.18-5.117a51.306 51.306 0 0 0-26.523 33.438c17.266-.117 32.188-2.031 44.727-5.703A227.06 227.06 0 0 0 77.07 54.883zm33.438 33.594a284.11 284.11 0 0 1 3.945 8.672c11.133-1.914 23.32-1.797 36.602.391-.664-11.445-5-21.875-11.953-30.078-7.149 8.866-16.68 15.858-28.594 21.015z"/><path d="M100 0C44.766 0 0 44.766 0 100s44.766 100 100 100 100-44.766 100-100S155.234 0 100 0zm.117 162.266c-34.141 0-61.836-27.695-61.836-61.836s27.695-61.836 61.836-61.836 61.836 27.656 61.836 61.836c0 34.14-27.695 61.836-61.836 61.836z"/><path d="M118.594 107.305c4.297 11.562 7.617 23.438 9.883 35.547 11.602-7.773 19.766-20.156 22.07-34.531-11.641-2.032-22.305-2.383-31.953-1.016z"/></g></svg>