<svg xmlns="http://www.w3.org/2000/svg" width="200" height="200" viewBox="0 0 200 200"><g fill="#ECEDE7"><path d="M100 117.083c9.167 0 17.083-7.5 17.083-17.083 0-3.75-1.25-7.083-3.333-10-2.917-4.167-8.333-7.083-13.75-7.083S89.167 85.833 86.25 90c-2.083 2.917-3.333 6.25-3.333 10 0 9.583 7.916 17.083 17.083 17.083zm37.5-52.5V62.5h-16.667v16.667H137.5z"/><path d="M100 0C44.772 0 0 44.772 0 100s44.772 100 100 100 100-44.772 100-100S155.228 0 100 0zm48.75 90v40A18.672 18.672 0 0 1 130 148.75H70A18.672 18.672 0 0 1 51.25 130V70A18.672 18.672 0 0 1 70 51.25h60A18.672 18.672 0 0 1 148.75 70v20z"/><path d="M139.167 90h-14.583c1.25 2.917 2.083 6.667 2.083 10 0 14.583-12.083 26.667-26.667 26.667-14.583 0-26.667-12.083-26.667-26.667 0-3.333.833-7.083 2.083-10H60.833v40c0 5 4.167 9.167 9.167 9.167h60c5 0 9.167-4.167 9.167-9.167V90z"/></g></svg>