<svg xmlns="http://www.w3.org/2000/svg" width="200" height="200" viewBox="0 0 200 200"><path fill="#ECEDE7" d="M100 0C44.772 0 0 44.772 0 100s44.772 100 100 100 100-44.772 100-100S155.228 0 100 0zm41.667 77.5v2.917c0 31.25-22.083 67.083-62.5 67.083-12.5 0-24.167-4.167-33.75-10.833 2.083.417 3.75.417 5.417.417 10 0 19.583-3.75 27.083-10-9.583 0-17.5-6.667-20.417-16.25 1.25.417 2.917.417 4.167.417 2.083 0 4.167-.417 5.833-.833-10-2.5-17.5-12.083-17.5-23.333v-.417c2.917 1.667 6.25 2.917 10 2.917-5.833-4.167-9.583-11.25-9.583-19.583 0-4.583.833-8.75 2.917-12.083C64.167 72.083 80.417 81.667 98.75 82.5c-.417-1.667-.417-3.75-.417-5.417 0-13.333 10-23.75 22.083-23.75 6.25 0 11.667 2.917 15.833 7.5 5.417-1.25 10-3.333 14.167-5.833-1.667 5.417-5 10-9.583 12.917 4.167-.417 8.75-1.667 12.5-3.75-2.916 5-6.666 9.166-11.666 13.333z"/></svg>