<svg xmlns="http://www.w3.org/2000/svg" width="214" height="49" viewBox="0 0 214 49">
  <metadata><?xpacket begin="﻿" id="W5M0MpCehiHzreSzNTczkc9d"?>
<x:xmpmeta xmlns:x="adobe:ns:meta/" x:xmptk="Adobe XMP Core 5.6-c138 79.159824, 2016/09/14-01:09:01        ">
   <rdf:RDF xmlns:rdf="http://www.w3.org/1999/02/22-rdf-syntax-ns#">
      <rdf:Description rdf:about=""/>
   </rdf:RDF>
</x:xmpmeta>
                                                                                                    
                                                                                                    
                                                                                                    
                                                                                                    
                                                                                                    
                                                                                                    
                                                                                                    
                                                                                                    
                                                                                                    
                                                                                                    
                                                                                                    
                                                                                                    
                                                                                                    
                                                                                                    
                                                                                                    
                                                                                                    
                                                                                                    
                                                                                                    
                                                                                                    
                                                                                                    
                           
<?xpacket end="w"?></metadata>
<defs>
    <style>
      .cls-1 {
        fill: #ebece6;
        fill-rule: evenodd;
      }
    </style>
  </defs>
  <path id="Coulee_Creative" data-name="Coulee      Creative" class="cls-1" d="M10.432,23.4v-3.06a1.3,1.3,0,0,0-.45-1.005,1.6,1.6,0,0,0-1.11-.4H2.062a1.544,1.544,0,0,0-1.1.4,1.317,1.317,0,0,0-.435,1.005v10.32a1.27,1.27,0,0,0,.435.99,1.578,1.578,0,0,0,1.1.39h6.81a1.635,1.635,0,0,0,1.11-.39,1.252,1.252,0,0,0,.45-0.99v-3.03H7.342v1.65H3.592v-7.53h3.75V23.4h3.09Zm12.66,8.25a1.252,1.252,0,0,0,.45-0.99V20.308a1.267,1.267,0,0,0-.45-0.975,1.559,1.559,0,0,0-1.08-.4h-7.5a1.559,1.559,0,0,0-1.08.4,1.267,1.267,0,0,0-.45.975v10.35a1.252,1.252,0,0,0,.45.99,1.593,1.593,0,0,0,1.08.39h7.5A1.593,1.593,0,0,0,23.092,31.648Zm-7.02-9.93h4.38v7.53h-4.38v-7.53Zm20.7,9.93a1.252,1.252,0,0,0,.45-0.99V18.9H34.1v10.35h-4.41V18.9h-3.12v11.76a1.252,1.252,0,0,0,.45.99,1.634,1.634,0,0,0,1.11.39h7.53A1.635,1.635,0,0,0,36.772,31.648Zm6.24-12.72h-3.12v13.11h8.88v-2.79h-5.76V18.928h0Zm17.97,2.82v-2.82h-9.84v13.11h9.84v-2.76h-6.81v-2.37h3.75v-2.76h-3.75v-2.4h6.81Zm12.21,0v-2.82h-9.84v13.11h9.84v-2.76h-6.81v-2.37h3.75v-2.76h-3.75v-2.4h6.81ZM132.5,23.4v-3.06a1.3,1.3,0,0,0-.45-1.005,1.6,1.6,0,0,0-1.11-.4h-6.81a1.541,1.541,0,0,0-1.095.4,1.314,1.314,0,0,0-.435,1.005v10.32a1.267,1.267,0,0,0,.435.99,1.575,1.575,0,0,0,1.095.39h6.81a1.636,1.636,0,0,0,1.11-.39,1.252,1.252,0,0,0,.45-0.99v-3.03h-3.09v1.65h-3.75v-7.53h3.75V23.4h3.09Zm14.22,8.64-3-4.5a1.6,1.6,0,0,0,1.11-.405,1.3,1.3,0,0,0,.45-1v-5.82a1.267,1.267,0,0,0-.45-0.975,1.6,1.6,0,0,0-1.11-.4h-8.91v13.11h3.09v-4.5h2.22l3,4.5h3.6Zm-8.82-10.32h4.29v3.03H137.9v-3.03Zm20.069,0.03v-2.82h-9.84v13.11h9.84v-2.76h-6.81v-2.37h3.75v-2.76h-3.75v-2.4h6.81Zm14.61,10.29-4.29-13.08h-4.71l-4.29,13.08h3.18l1.05-3.09h4.86l1.02,3.09h3.18Zm-5.16-5.91h-2.97l1.5-4.41Zm14.22-7.2h-9.15v2.76h3.03v10.35h3.09V21.688h3.03v-2.76h0Zm5.91,0h-3.09v13.11h3.09V18.928Zm11.459,0-3.12,10.26-3.15-10.26h-3.15l3.93,13.11h4.74l3.9-13.11h-3.15Zm14.49,2.82v-2.82h-9.84v13.11h9.84v-2.76h-6.81v-2.37h3.75v-2.76h-3.75v-2.4h6.81Z"/>
  <path class="cls-1" d="M111.781,22.333a2.168,2.168,0,1,1-2.223,2.167A2.2,2.2,0,0,1,111.781,22.333Zm-15.61,1.748c-0.126.123-.227,0.271-0.379,0.443,0.152,0.172.253,0.345,0.4,0.492,3.713,3.6,7.4,7.19,11.114,10.785a0.671,0.671,0,0,0,1.112.025c0.808-.763,1.616-1.5,2.4-2.29,0.657-.616.657-0.69,0-1.305-2.5-2.438-4.976-4.851-7.5-7.264-0.454-.443-0.4-0.665.025-1.083,2.526-2.413,5.027-4.875,7.553-7.313a0.6,0.6,0,0,0,0-1.059q-1.251-1.145-2.425-2.364a0.67,0.67,0,0,0-1.111-.025C103.648,16.818,99.884,20.437,96.171,24.081Zm-13.059.172a0.379,0.379,0,0,0,0,.542L106.6,48.877a0.424,0.424,0,0,0,.3.123h6.618a0.409,0.409,0,0,0,.3-0.689L90.816,24.746a0.379,0.379,0,0,1,0-.542L113.271,0.689a0.411,0.411,0,0,0-.3-0.689H106.4a0.423,0.423,0,0,0-.3.123Z"/>
</svg>
