<?xml version="1.0" encoding="utf-8"?>
<!-- Generator: Adobe Illustrator 19.1.0, SVG Export Plug-In . SVG Version: 6.00 Build 0)  -->
<svg version="1.1" id="Layer_1" xmlns="http://www.w3.org/2000/svg" xmlns:xlink="http://www.w3.org/1999/xlink" x="0px" y="0px"
	 viewBox="83 -77 124.5 201" style="enable-background:new 83 -77 124.5 201;" xml:space="preserve">
<style type="text/css">
	.st0{fill:#fff;}
</style>
<g>
	<ellipse class="st0" cx="198.7" cy="23.5" rx="8.8" ry="8.8"/>
	<path class="st0" d="M136.9,21.8c-0.5,0.5-0.9,1.1-1.5,1.8c0.6,0.7,1,1.4,1.6,2c14.7,14.6,29.3,29.2,44,43.8
		c1.6,1.6,2.8,1.7,4.4,0.1c3.2-3.1,6.4-6.1,9.5-9.3c2.6-2.5,2.6-2.8,0-5.3c-9.9-9.9-19.7-19.7-29.7-29.5c-1.8-1.8-1.6-2.7,0.1-4.4
		c10-9.8,19.9-19.8,29.9-29.7c1.6-1.6,1.7-2.7,0-4.3c-3.3-3.1-6.5-6.3-9.6-9.6c-1.6-1.6-2.8-1.7-4.4-0.1
		C166.5-7.7,151.6,7,136.9,21.8z"/>
	<path class="st0" d="M85.2,22.5c-0.6,0.6-0.6,1.6,0,2.2l93,97.8c0.3,0.3,0.7,0.5,1.2,0.5h26.2c1.4,0,2.2-1.7,1.2-2.8l-91.1-95.7
		c-0.6-0.6-0.6-1.6,0-2.2l88.9-95.5c1-1,0.2-2.8-1.2-2.8h-26c-0.5,0-0.9,0.2-1.2,0.5L85.2,22.5z"/>
</g>
</svg>
