<svg xmlns="http://www.w3.org/2000/svg" width="14" height="28"><path fill-rule="evenodd" fill="#4E585D" d="M10.564 7.585V1.666c0-.625-.505-1.133-1.128-1.133H4.923a1.13 1.13 0 0 0-1.128 1.133v5.919C1.779 8.658.41 10.491.41 13v13.6c0 .626.505 1.134 1.129 1.134h11.282c.623 0 1.128-.508 1.128-1.134V13c0-2.509-1.369-4.342-3.385-5.415zm1.128 17.882H2.667v-3.399h9.025v3.399zm0-5.667H2.667v-4.533h9.025V19.8zM2.667 13c0-1.652.943-2.619 2.256-3.401.447-.176 1.128-.506 1.128-1.133V2.801h2.257v5.665c0 .627.645.921 1.128 1.133 1.313.782 2.256 1.749 2.256 3.401H2.667z"/></svg>