<svg xmlns="http://www.w3.org/2000/svg" width="28" height="28"><path fill-rule="evenodd" fill="#4E585D" d="M1.128 10.534h24.821A1.13 1.13 0 0 0 27.077 9.4c0-5.007-6.062-9.067-13.539-9.067C6.062.333 0 4.393 0 9.4a1.13 1.13 0 0 0 1.128 1.134zm12.41-7.933c5.59 0 10.216 2.451 11.113 5.666H2.426c.897-3.215 5.523-5.666 11.112-5.666zm10.154 18.133H3.385A3.392 3.392 0 0 0 0 24.134a3.391 3.391 0 0 0 3.385 3.399h20.307a3.391 3.391 0 0 0 3.385-3.399c0-1.878-1.515-3.4-3.385-3.4zm0 4.533H3.385a1.131 1.131 0 0 1-1.129-1.133c0-.628.505-1.132 1.129-1.132h20.307c.624 0 1.129.504 1.129 1.132 0 .625-.505 1.133-1.129 1.133zM2.256 18.468c0 .624.505 1.132 1.129 1.132h20.307c.624 0 1.129-.508 1.129-1.132a1.13 1.13 0 0 0-1.129-1.134H3.385a1.13 1.13 0 0 0-1.129 1.134zm6.267-2.392c.152.076.321.125.503.125s.35-.049.502-.125l4.01-2.008 4.011 2.008c.152.076.321.125.502.125.182 0 .351-.049.503-.125l4.515-2.262s.623-.172.623-1.013a1.13 1.13 0 0 0-1.128-1.134c-.369 0-.504.12-.504.12l-4.009 2.014-4.01-2.01a1.12 1.12 0 0 0-.503-.124c-.368 0-.504.12-.504.12l-4.008 2.014-4.011-2.01a1.116 1.116 0 0 0-.502-.124 1.13 1.13 0 0 0-.503 2.143l4.513 2.266z"/></svg>