<svg xmlns="http://www.w3.org/2000/svg" width="170" height="171"><path fill-rule="evenodd" fill="#7EACCF" d="M160.591 105.982c2.911 2.874 5.679 5.891 8.593 8.761 1.1 1.085.982 1.854-.064 2.836-3.28 3.081-6.477 6.253-9.819 9.263-.411.37-1.814.312-2.232-.092-7.314-7.048-14.563-14.164-21.79-21.304-5.883-5.811-11.711-11.679-17.576-17.509-2.484-2.47-2.5-2.457-.041-4.957 12.527-12.73 25.054-25.463 37.584-38.19 2.194-2.23 2.219-2.187 4.459-.061 2.844 2.698 5.761 5.32 8.627 7.997.462.431.822.971 1.328 1.58-.542.643-.975 1.222-1.473 1.736-8.822 9.124-17.605 18.284-26.518 27.316-1.689 1.712-1.602 2.663.089 4.268 6.358 6.036 12.596 12.196 18.833 18.356zm4.655-89.513l-5.713 6.07c-.236.297-.509.606-.833.935l-1.037 1.055-.01.009c-19.367 19.705-38.742 39.403-58.114 59.102-2.241 2.279-2.23 2.271.067 4.517 17.772 17.364 35.541 34.734 53.309 52.104 5.254 5.137 10.439 10.347 15.79 15.381 1.762 1.659 1.668 2.855.072 4.428-2.921 2.876-5.776 5.821-8.617 8.778-1.009 1.049-1.846 1.087-2.901.046-4.537-4.471-9.186-8.836-13.669-13.354a286.363 286.363 0 0 1-1.894-1.93c-.292-.302-.58-.607-.87-.912v.01l-12.156-11.775c-.21-.176-.421-.371-.635-.582a3212.5 3212.5 0 0 1-2.647-2.598c-12.408-12.168-24.851-24.302-37.281-36.449-.294-.288-.627-.542-.873-.866-1.462-1.911-2.659-1.658-4.31.028-20.943 21.385-41.927 42.73-62.996 63.992-1.836 1.855-3.749 3.629-5.419 5.637-.945 1.139-1.791 1.132-2.85.07-3.124-3.138-6.276-6.251-9.499-9.287-1.321-1.245-1.007-2.127.118-3.25a2538.426 2538.426 0 0 0 15.753-15.898c17.703-18.016 35.376-36.062 53.118-54.037 1.678-1.702.501-2.477-.571-3.527C51.92 65.947 33.255 47.732 14.626 29.483 10.002 24.952 5.537 20.261.912 15.731c-1.278-1.251-1.11-2.058.067-3.206 2.934-2.864 5.853-5.751 8.613-8.781 1.41-1.548 2.535-1.455 3.891-.129 2.99 2.922 6.006 5.821 8.988 8.755 20.225 19.893 40.46 39.776 60.638 59.717 1.683 1.664 2.571.802 3.778-.428 15.109-15.394 30.244-30.76 45.37-46.136 6.036-6.134 12.067-12.271 18.102-18.406 1.711-1.739 3.462-3.441 5.126-5.225 1.058-1.134 1.951-1.23 3.09-.085 3.068 3.079 6.191 6.103 9.313 9.127 1.094 1.059 1.216 2.082.044 3.136-.846.763-1.712 1.532-2.686 2.399zM91.041 50.147c-1.487 1.516-2.886 3.124-4.265 4.741-1.065 1.249-2.007 1.435-3.246.165-2.345-2.404-4.779-4.722-7.198-7.052-11.151-10.736-22.314-21.459-33.463-32.198-2.32-2.233-2.304-2.255.002-4.601 2.814-2.864 5.626-5.729 8.459-8.573.499-.5 1.098-.904 1.797-1.472.801.703 1.492 1.254 2.121 1.867 9.088 8.868 18.208 17.706 27.213 26.658 1.655 1.645 2.602 1.732 4.273.002 8.821-9.136 17.809-18.108 26.638-27.234 1.585-1.638 2.56-1.69 4.108-.026 2.619 2.818 5.39 5.504 8.225 8.108 1.741 1.597 1.644 2.739-.011 4.405-11.603 11.686-23.125 23.45-34.653 35.21zM2.463 58.488C.089 56.169.06 56.134 2.348 53.881c2.801-2.758 5.718-5.4 8.473-8.203 1.271-1.293 2.18-1.306 3.456-.023 3.755 3.779 7.603 7.467 11.415 11.19 9.208 8.993 18.383 18.02 27.652 26.948 1.69 1.629 2.025 2.548.114 4.454-9.925 9.896-19.673 19.971-29.447 30.018-3.023 3.105-5.967 6.291-8.886 9.496-1.18 1.294-2.127 1.461-3.45.128-2.593-2.61-5.366-5.045-7.961-7.654a12.48 12.48 0 0 1-2.113-2.86s1.899-2.589 2.812-3.527c8.219-8.444 16.461-16.868 24.794-25.202 1.567-1.569 1.689-2.476.011-4.086-8.985-8.621-17.85-17.366-26.755-26.072zm81.01 58.789c.498-.506 1.093-.917 1.729-1.442.652.495 1.207.833 1.66 1.275 13.256 12.938 26.488 25.898 39.769 38.811 1.467 1.426 1.417 2.488-.006 3.872-2.878 2.801-5.713 5.651-8.438 8.598-1.4 1.514-2.37 1.422-3.805.006-8.86-8.755-17.829-17.405-26.675-26.175-1.505-1.492-2.376-1.615-3.922-.017-8.604 8.895-17.319 17.683-26.003 26.502-2.239 2.273-2.437 2.287-4.71.042-2.796-2.764-5.528-5.592-8.323-8.356-1.375-1.359-1.359-2.425.076-3.875 12.92-13.044 25.769-26.157 38.648-39.241z"/></svg>