<svg xmlns="http://www.w3.org/2000/svg" width="24" height="17"><path fill-rule="evenodd" fill="#FFF" d="M22.915 5.91a1.1 1.1 0 0 1-1.091-1.109 1.1 1.1 0 0 1 1.091-1.108 1.1 1.1 0 0 1 1.09 1.108 1.1 1.1 0 0 1-1.09 1.109zM19.28 9.603a1.1 1.1 0 0 1-1.09-1.108c0-.613.488-1.108 1.09-1.108.602 0 1.09.495 1.09 1.108a1.1 1.1 0 0 1-1.09 1.108zm0-3.693a1.1 1.1 0 0 1-1.09-1.109 1.1 1.1 0 0 1 1.09-1.108 1.1 1.1 0 0 1 1.09 1.108 1.1 1.1 0 0 1-1.09 1.109zm0-3.694a1.1 1.1 0 0 1-1.09-1.109 1.1 1.1 0 0 1 1.09-1.108 1.1 1.1 0 0 1 1.09 1.108 1.1 1.1 0 0 1-1.09 1.109zm-3.635 11.08a1.1 1.1 0 0 1-1.09-1.108 1.1 1.1 0 0 1 1.09-1.108 1.1 1.1 0 0 1 1.091 1.108 1.1 1.1 0 0 1-1.091 1.108zm0-3.693a1.1 1.1 0 0 1-1.09-1.108c0-.613.488-1.108 1.09-1.108a1.1 1.1 0 0 1 1.091 1.108 1.1 1.1 0 0 1-1.091 1.108zm0-3.693a1.1 1.1 0 0 1-1.09-1.109 1.1 1.1 0 0 1 1.09-1.108 1.1 1.1 0 0 1 1.091 1.108 1.1 1.1 0 0 1-1.091 1.109zM12.01 16.99a1.1 1.1 0 0 1-1.09-1.108 1.1 1.1 0 0 1 1.09-1.109 1.1 1.1 0 0 1 1.091 1.109 1.1 1.1 0 0 1-1.091 1.108zm0-3.694a1.1 1.1 0 0 1-1.09-1.108 1.1 1.1 0 0 1 1.09-1.108 1.1 1.1 0 0 1 1.091 1.108 1.1 1.1 0 0 1-1.091 1.108zm0-3.693a1.1 1.1 0 0 1-1.09-1.108c0-.613.488-1.108 1.09-1.108.603 0 1.091.495 1.091 1.108a1.1 1.1 0 0 1-1.091 1.108zm-3.635 3.693a1.1 1.1 0 0 1-1.09-1.108 1.1 1.1 0 0 1 1.09-1.108 1.1 1.1 0 0 1 1.091 1.108 1.1 1.1 0 0 1-1.091 1.108zm0-3.693a1.1 1.1 0 0 1-1.09-1.108c0-.613.488-1.108 1.09-1.108.603 0 1.091.495 1.091 1.108a1.1 1.1 0 0 1-1.091 1.108zm0-3.693a1.1 1.1 0 0 1-1.09-1.109 1.1 1.1 0 0 1 1.09-1.108 1.1 1.1 0 0 1 1.091 1.108A1.1 1.1 0 0 1 8.375 5.91zM4.741 9.603A1.1 1.1 0 0 1 3.65 8.495a1.1 1.1 0 0 1 1.091-1.108c.602 0 1.09.495 1.09 1.108a1.1 1.1 0 0 1-1.09 1.108zm0-3.693A1.1 1.1 0 0 1 3.65 4.801a1.1 1.1 0 0 1 1.091-1.108 1.1 1.1 0 0 1 1.09 1.108 1.1 1.1 0 0 1-1.09 1.109zm0-3.694A1.1 1.1 0 0 1 3.65 1.107 1.1 1.1 0 0 1 4.741-.001a1.1 1.1 0 0 1 1.09 1.108 1.1 1.1 0 0 1-1.09 1.109zM1.106 5.91A1.1 1.1 0 0 1 .015 4.801a1.1 1.1 0 0 1 1.091-1.108 1.1 1.1 0 0 1 1.09 1.108 1.1 1.1 0 0 1-1.09 1.109z"/></svg>