<svg xmlns="http://www.w3.org/2000/svg" width="17" height="28"><path fill-rule="evenodd" fill="#4E585D" d="M14.382 16.335a1.128 1.128 0 0 0 1.926-.801c0-.313-.127-.597-.331-.802L9.538 8.264V4.669l4.844 4.866c.204.204.486.333.798.333a1.135 1.135 0 1 0 .797-1.936L9.208 1.133a1.126 1.126 0 0 0-1.595 0L.843 7.932c-.203.205-.33.489-.33.802a1.127 1.127 0 1 0 1.926.801l4.843-4.866v3.595L.843 14.732c-.203.205-.33.489-.33.802a1.128 1.128 0 0 0 1.926.801l4.843-4.865v3.594L.843 21.533a1.13 1.13 0 0 0-.33.801c0 .627.504 1.133 1.128 1.133.312 0 .594-.127.798-.333l4.843-4.864v8.597a1.13 1.13 0 0 0 1.128 1.134 1.13 1.13 0 0 0 1.128-1.134V18.27l4.844 4.864c.204.206.486.333.798.333a1.13 1.13 0 0 0 1.128-1.133c0-.314-.127-.598-.331-.801l-6.439-6.469V11.47l4.844 4.865z"/></svg>