<svg id="Menu" xmlns="http://www.w3.org/2000/svg" width="32" height="32" viewBox="0 0 32 32">
  <metadata><?xpacket begin="﻿" id="W5M0MpCehiHzreSzNTczkc9d"?>
<x:xmpmeta xmlns:x="adobe:ns:meta/" x:xmptk="Adobe XMP Core 5.6-c138 79.159824, 2016/09/14-01:09:01        ">
   <rdf:RDF xmlns:rdf="http://www.w3.org/1999/02/22-rdf-syntax-ns#">
      <rdf:Description rdf:about=""/>
   </rdf:RDF>
</x:xmpmeta>



<?xpacket end="w"?></metadata>
<defs>
    <style>
      .cls-1 {
        fill: #ebece6;
      }
    </style>
  </defs>

  <rect class="cls-1" x="0" y="0" width="4" height="4"/>
  <rect class="cls-1" x="0" y="7" width="4" height="4"/>
  <rect class="cls-1" x="0" y="14" width="4" height="4"/>
  <rect class="cls-1" x="0" y="21" width="4" height="4"/>
  <rect class="cls-1" x="0" y="28" width="4" height="4"/>
  <rect class="cls-1" x="7" y="0" width="4" height="4"/>
  <rect class="cls-1" x="7" y="7" width="4" height="4"/>
  <rect class="cls-1" x="7" y="14" width="4" height="4"/>
  <rect class="cls-1" x="7" y="21" width="4" height="4"/>
  <rect class="cls-1" x="7" y="28" width="4" height="4"/>
  <rect class="cls-1" x="14" y="0" width="4" height="4"/>
  <rect class="cls-1" x="14" y="7" width="4" height="4"/>
  <rect class="cls-1" x="14" y="14" width="4" height="4"/>
  <rect class="cls-1" x="14" y="21" width="4" height="4"/>
  <rect class="cls-1" x="14" y="28" width="4" height="4"/>
  <rect class="cls-1" x="21" y="0" width="4" height="4"/>
  <rect class="cls-1" x="21" y="7" width="4" height="4"/>
  <rect class="cls-1" x="21" y="14" width="4" height="4"/>
  <rect class="cls-1" x="21" y="21" width="4" height="4"/>
  <rect class="cls-1" x="21" y="28" width="4" height="4"/>
  <rect class="cls-1" x="28" y="0" width="4" height="4"/>
  <rect class="cls-1" x="28" y="7" width="4" height="4"/>
  <rect class="cls-1" x="28" y="14" width="4" height="4"/>
  <rect class="cls-1" x="28" y="21" width="4" height="4"/>
  <rect class="cls-1" x="28" y="28" width="4" height="4"/>
</svg>
