<svg xmlns="http://www.w3.org/2000/svg" width="28" height="28"><path fill-rule="evenodd" fill="#4E585D" d="M7.692 22.666a2.261 2.261 0 0 0 1.882-3.512l3.899-10.102c.04-.003.072-.024.11-.028l5.573 5.954a2.264 2.264 0 0 0 2.075 3.157 2.263 2.263 0 0 0 2.256-2.267c0-.577-.22-1.095-.572-1.496l3.28-9.884A2.265 2.265 0 0 0 28 2.267 2.26 2.26 0 0 0 25.744.001a2.26 2.26 0 0 0-1.685 3.76l-3.217 9.696-5.438-5.773c.115-.273.186-.568.186-.884a2.26 2.26 0 0 0-2.257-2.265A2.26 2.26 0 0 0 11.077 6.8c0 .463.139.889.375 1.248l-3.899 10.1a2.256 2.256 0 0 0-2.117 2.253 2.26 2.26 0 0 0 2.256 2.265zm19.18 2.269H3.18V1.134a1.13 1.13 0 0 0-2.257 0v24.933c0 .625.505 1.134 1.128 1.134h24.821c.623 0 1.128-.509 1.128-1.134 0-.627-.505-1.132-1.128-1.132z"/></svg>