<svg xmlns="http://www.w3.org/2000/svg" preserveAspectRatio="xMidYMid" width="199" height="185" viewBox="0 0 199 185"><defs><style>.cls-1{fill:#35434a;fill-rule:evenodd}</style></defs><path d="M196.245 182.29l-95.534-88.93a1.637 1.637 0 0 0-2.244.012L2.768 184.423c-1.045.995-2.768.251-2.768-1.194V156.98c0-.452.185-.883.511-1.195L98.3 62.747a1.637 1.637 0 0 1 2.244-.012l97.932 91.162c.334.311.524.749.524 1.207v25.98c0 1.437-1.706 2.184-2.755 1.206zm0-48.046l-95.63-89.018a1.64 1.64 0 0 0-2.231 0L2.755 134.244c-1.049.978-2.755.231-2.755-1.205V1.635C0 .725.734-.011 1.64-.011h18.982c.906 0 1.64.736 1.64 1.646v80.21c0 1.437 1.706 2.184 2.756 1.207L98.38 14.76a1.636 1.636 0 0 1 2.23 0l73.372 68.292c1.05.977 2.756.23 2.756-1.207V1.635c0-.91.734-1.646 1.64-1.646h18.982c.906 0 1.64.736 1.64 1.646v131.404c0 1.436-1.706 2.183-2.755 1.205zm-98.818-19.721c.565-.566 1.238-1.024 1.958-1.613.728.57 1.347.958 1.85 1.462 14.748 14.783 29.468 29.591 44.243 44.345 1.632 1.63 1.564 2.83-.05 4.382-3.263 3.135-6.479 6.326-9.573 9.629-1.59 1.696-2.679 1.583-4.275-.036-9.855-10.005-19.834-19.886-29.674-29.905-1.673-1.705-2.651-1.854-4.405-.064-9.763 9.965-19.651 19.809-29.504 29.685-2.54 2.546-2.763 2.561-5.291-.005-3.11-3.157-6.148-6.386-9.257-9.545-1.529-1.553-1.499-2.758.129-4.381 14.658-14.609 29.237-29.298 43.849-43.954zm2.073 52.842c4.856 0 8.793 3.95 8.793 8.823s-3.937 8.823-8.793 8.823-8.793-3.95-8.793-8.823 3.937-8.823 8.793-8.823z" class="cls-1"/></svg>